# xmcd CD database file
#
# Track frame offsets:
#	150
#	14378
#	29620
#	47146
#	64695
#	71393
#	90000
#	106337
#	121461
#	139327
#	154902
#
# Disc length: 2327 seconds
#
# Revision: 2
# Processed by: cddbd v1.5.2PL0 Copyright (c) Steve Scherf et al.
# Submitted via: CDex 1.50
#
DISCID=8f09150b
DTITLE=Lisa Simone - My World
DYEAR=2016
DGENRE=Jazz
TTITLE0=Let It All Go
TTITLE1=Unconditionally
TTITLE2=Expectations
TTITLE3=I Pray
TTITLE4=Interlude - I've Learned
TTITLE5=My World
TTITLE6=If You Knew
TTITLE7=Ode To Joe
TTITLE8=Tragique Beauty
TTITLE9=Hold On
TTITLE10=This Place
EXTD=YEAR: 2016
EXTT0=
EXTT1=
EXTT2=
EXTT3=
EXTT4=
EXTT5=
EXTT6=
EXTT7=
EXTT8=
EXTT9=
EXTT10=
PLAYORDER=
